<?xml version="1.0" encoding="UTF-8" standalone="no"?>
<!-- Generator: Adobe Illustrator 22.0.1, SVG Export Plug-In . SVG Version: 6.00 Build 0)  -->

<svg
   xmlns:dc="http://purl.org/dc/elements/1.1/"
   xmlns:cc="http://creativecommons.org/ns#"
   xmlns:rdf="http://www.w3.org/1999/02/22-rdf-syntax-ns#"
   xmlns:svg="http://www.w3.org/2000/svg"
   xmlns="http://www.w3.org/2000/svg"
   xmlns:sodipodi="http://sodipodi.sourceforge.net/DTD/sodipodi-0.dtd"
   xmlns:inkscape="http://www.inkscape.org/namespaces/inkscape"
   version="1.1"
   id="Layer_1"
   x="0px"
   y="0px"
   viewBox="0 0 1480.3906 294.29057"
   enable-background="new 0 0 1440 1200"
   xml:space="preserve"
   sodipodi:docname="accionlabs-logo-2018.svg"
   width="391.68668mm"
   height="77.86438mm"
   inkscape:version="0.92.4 (5da689c313, 2019-01-14)"
   inkscape:export-filename="/Users/ashutoshbijoor/Documents/Accion Labs/Logo/accionlabs-logo-2018.png"
   inkscape:export-xdpi="43.658501"
   inkscape:export-ydpi="43.658501"><metadata
   id="metadata937"><rdf:RDF><cc:Work
       rdf:about=""><dc:format>image/svg+xml</dc:format><dc:type
         rdf:resource="http://purl.org/dc/dcmitype/StillImage" /><dc:title></dc:title></cc:Work></rdf:RDF></metadata><defs
   id="defs935" /><sodipodi:namedview
   pagecolor="#ffffff"
   bordercolor="#666666"
   borderopacity="1"
   objecttolerance="10"
   gridtolerance="10"
   guidetolerance="10"
   inkscape:pageopacity="0"
   inkscape:pageshadow="2"
   inkscape:window-width="1443"
   inkscape:window-height="858"
   id="namedview933"
   showgrid="false"
   units="mm"
   fit-margin-top="10"
   fit-margin-right="10"
   fit-margin-left="10"
   fit-margin-bottom="10"
   inkscape:zoom="0.56833333"
   inkscape:cx="739.89528"
   inkscape:cy="148.39528"
   inkscape:window-x="0"
   inkscape:window-y="0"
   inkscape:window-maximized="0"
   inkscape:current-layer="Layer_1" />
<g
   id="g930"
   transform="translate(19.895276,-454.10472)">
	<g
   id="g908">
		<path
   d="m 152,491.9 c 0.2,0.7 0.4,1.4 0.7,2 5.6,9.6 11.3,19.1 16.9,28.7 8.3,14 16.6,28 24.8,42 7.2,12.2 14.4,24.3 21.6,36.5 9.3,15.7 18.5,31.4 27.8,47.1 6.8,11.4 13.5,22.9 20.3,34.3 5.2,8.8 10.3,17.5 15.5,26.3 0.3,0.5 0.6,1 0.6,1.8 -0.4,-0.2 -0.7,-0.4 -1.1,-0.6 -3.4,-2.2 -6.8,-4.4 -10.1,-6.6 -4.2,-2.7 -8.3,-5.4 -12.5,-8 -7.1,-4.4 -14.5,-8.2 -22.1,-11.6 -9.3,-4.2 -18.9,-7.6 -28.6,-10.4 -8.3,-2.4 -16.6,-4.3 -25.1,-5.5 -6.3,-0.9 -12.6,-1.9 -18.9,-2.3 -7.4,-0.5 -14.8,-0.4 -22.2,-0.5 -3,0 -5.9,0.2 -9.3,0.4 0.5,-0.7 0.8,-1.2 1.2,-1.5 4,-4 8.7,-6.8 13.9,-9 6.1,-2.6 12.4,-4.2 18.9,-5.2 5.3,-0.8 10.6,-1.3 16,-1.3 0.6,0 1.2,-0.1 2,-0.1 -0.3,-0.9 -0.5,-1.6 -0.8,-2.3 -5,-11.5 -9.9,-23 -14.9,-34.5 -4.8,-11.1 -9.5,-22.2 -14.3,-33.3 -0.6,-1.3 -0.8,-2.6 -0.8,-4 0,-26.5 0,-52.9 0,-79.4 0,-0.9 -0.1,-1.8 -0.1,-2.8 0.1,-0.2 0.4,-0.2 0.6,-0.2 z"
   id="path904"
   inkscape:connector-curvature="0"
   style="fill:#e84b54" />
		<path
   d="m 17.9,701.9 c 40.3,-69.8 80.6,-139.7 120.9,-209.6 1,0.6 0.7,1.3 0.8,1.9 0.1,4.2 0.1,8.3 0.1,12.5 0.2,17 0.4,34 0.6,51 0.1,6.2 0.1,12.4 0.1,18.7 0,0.8 -0.2,1.6 -0.5,2.3 -8.4,17.9 -16.9,35.8 -25.4,53.8 -5.6,11.8 -11.1,23.5 -16.6,35.3 -0.7,1.5 -1.6,2.2 -3.2,2.5 -21.7,4.4 -42.2,11.9 -61.5,22.8 -4.5,2.6 -8.9,5.5 -13.3,8.2 -0.5,0.3 -1,0.6 -1.5,1 -0.2,-0.2 -0.3,-0.3 -0.5,-0.4 z"
   id="path906"
   inkscape:connector-curvature="0"
   style="fill:#68717d" />
	</g>
	<g
   id="g928">
		<path
   d="m 343.3,564.1 c 23.1,0 44.4,9.8 57.5,26.9 l -28.7,21.6 c -6.5,-8.9 -17.5,-13.6 -28.7,-13.6 -20.1,0 -38.8,14.2 -38.8,36.7 0,22.5 18.7,37.8 38.8,37.8 11.3,0 22.2,-5 28.7,-13.9 l 29,21.3 c -13,17.2 -34.4,27.2 -57.8,27.2 -39.7,0 -74.6,-29 -74.6,-72.4 0,-43.5 35,-71.6 74.6,-71.6 z"
   id="path910"
   inkscape:connector-curvature="0"
   style="fill:#e84b54" />
		<path
   d="m 481.1,564.1 c 23.1,0 44.4,9.8 57.5,26.9 l -28.7,21.6 c -6.5,-8.9 -17.5,-13.6 -28.7,-13.6 -20.1,0 -38.8,14.2 -38.8,36.7 0,22.5 18.7,37.8 38.8,37.8 11.3,0 22.2,-5 28.7,-13.9 l 29,21.3 c -13,17.2 -34.4,27.2 -57.8,27.2 -39.7,0 -74.6,-29 -74.6,-72.4 -0.1,-43.5 34.9,-71.6 74.6,-71.6 z"
   id="path912"
   inkscape:connector-curvature="0"
   style="fill:#e84b54" />
		<path
   d="m 573.2,491.9 c 12.4,0 22.8,9.5 22.8,21.6 0,12.4 -10.4,21.9 -22.8,21.9 -12.7,0 -23.4,-9.5 -23.4,-21.9 0,-12.1 10.6,-21.6 23.4,-21.6 z m 17.7,213.3 H 555.1 V 567.1 h 35.8 z"
   id="path914"
   inkscape:connector-curvature="0"
   style="fill:#e84b54" />
		<path
   d="m 609,635.7 c 0,-43.5 32.6,-71.6 72,-71.6 39.1,0 72,28.1 72,71.6 0,43.5 -32.9,72.2 -72,72.2 -39.4,-0.1 -72,-28.8 -72,-72.2 z m 108.1,0 c 0,-21.9 -16.3,-36.1 -36.1,-36.1 -19.8,0 -36.1,14.2 -36.1,36.1 0,22.5 16.3,37 36.1,37 19.8,0 36.1,-14.6 36.1,-37 z"
   id="path916"
   inkscape:connector-curvature="0"
   style="fill:#e84b54" />
		<path
   d="M 807.1,705.2 H 771 V 567.1 h 36.1 v 20.4 c 7.7,-14.8 25.2,-23.4 41.2,-23.4 32.3,0 51.5,20.4 51.5,59.4 v 81.6 c -5.9,0 -30.5,0 -36.1,0 V 630 c 0,-20.1 -10.7,-30.8 -26.4,-30.8 -16.3,0 -30.2,8.3 -30.2,32.2 z"
   id="path918"
   inkscape:connector-curvature="0"
   style="fill:#e84b54" />
		<rect
   x="924.70001"
   y="491.89999"
   width="36.099998"
   height="213.2"
   id="rect920"
   style="fill:#68717d" />
		<path
   d="m 1092.3,687.4 c -8.9,14.2 -29.3,20.4 -42.9,20.4 -36.4,0 -70.5,-27.8 -70.5,-71.9 0,-44.4 34.1,-71.9 70.5,-71.9 12.4,0 32.9,4.7 42.9,20.1 v -17.2 h 36.1 V 705 h -36.1 z m -37.9,-14.2 c 19.5,0 37.9,-13.6 37.9,-37.3 0,-24 -19,-37.3 -37.9,-37.3 -19.8,0 -38.2,14.8 -38.2,37.3 0,22.2 18.4,37.3 38.2,37.3 z"
   id="path922"
   inkscape:connector-curvature="0"
   style="fill:#68717d" />
		<path
   d="M 1155.1,705.2 V 491.9 h 36.1 v 93.4 c 7.4,-13.9 24.9,-21.3 43.2,-21.3 36.4,0 67.8,28.1 67.8,72.2 0,43.8 -31.7,71.9 -67.8,71.9 -18.1,0 -35.8,-7.7 -43.2,-21.6 v 18.6 h -36.1 z m 73.5,-31.7 c 20.1,0 36.4,-15.1 36.4,-37.8 0,-22.5 -16.3,-37.3 -36.4,-37.3 -18.7,0 -36.7,13.6 -36.7,37.3 0,23 17.1,37.8 36.7,37.8 z"
   id="path924"
   inkscape:connector-curvature="0"
   style="fill:#68717d" />
		<path
   d="m 1314.8,605.2 c 0,-22.2 23.4,-41.1 50.9,-41.1 26.1,0 52.7,11.8 53.9,43.5 h -34.4 c -0.6,-10.4 -10.7,-14.2 -18.7,-14.2 -8.9,0 -17.5,3.3 -17.5,13.6 0,5.6 6.5,9.5 14.5,11.5 l 23.1,5.6 c 32,8.3 36.1,30.5 36.1,41.4 0,28.1 -27.8,42.6 -56.6,42.6 -27.2,0 -55.1,-16.6 -55.7,-46.4 h 33.8 c 0.9,9.8 12.1,18 25.5,17.4 10.1,-0.3 18.1,-5.9 18.1,-13.9 0.3,-7.1 -5,-10.6 -15.1,-13 l -19,-4.7 c -35.7,-9.8 -38.9,-26 -38.9,-42.3 z"
   id="path926"
   inkscape:connector-curvature="0"
   style="fill:#68717d" />
	</g>
</g>
</svg>